HIERARCHY
ROOT Bip001_Pelvis
{
  OFFSET 7.937 94.8971 -8.5489
  CHANNELS 6 Xposition Yposition Zposition Zrotation Xrotation Yrotation
  JOINT Bip001_Spine
  {
    OFFSET 1.44608e-005 10.4157 -0.0118244
    CHANNELS 3 Zrotation Xrotation Yrotation
    JOINT Bip001_L_Thigh
    {
      OFFSET 11.2582 -10.4157 0.0118432
      CHANNELS 3 Zrotation Xrotation Yrotation
      JOINT Bip001_L_Calf
      {
        OFFSET -0.720717 -44.8687 0.366937
        CHANNELS 3 Zrotation Xrotation Yrotation
        JOINT Bip001_L_Foot
        {
          OFFSET -0.664439 -41.3745 -3.62995
          CHANNELS 3 Zrotation Xrotation Yrotation
          JOINT Bip001_L_Toe0
          {
            OFFSET 0.0541047 -10.4146 13.4033
            CHANNELS 3 Zrotation Xrotation Yrotation
            End Site
            {
              OFFSET -1.04503e-005 0 7.70137
            }
          }
        }
      }
    }
    JOINT Bip001_R_Thigh
    {
      OFFSET -11.2582 -10.4156 0.0118122
      CHANNELS 3 Zrotation Xrotation Yrotation
      JOINT Bip001_R_Calf
      {
        OFFSET 0.72059 -44.8687 0.36676
        CHANNELS 3 Zrotation Xrotation Yrotation
        JOINT Bip001_R_Foot
        {
          OFFSET 0.664321 -41.3745 -3.62979
          CHANNELS 3 Zrotation Xrotation Yrotation
          JOINT Bip001_R_Toe0
          {
            OFFSET -0.05417 -10.4146 13.4033
            CHANNELS 3 Zrotation Xrotation Yrotation
            End Site
            {
              OFFSET -1.04873e-005 0 7.70137
            }
          }
        }
      }
    }
    JOINT Bip001_Spine1
    {
      OFFSET 1.90638e-005 14.8539 1.10727
      CHANNELS 3 Zrotation Xrotation Yrotation
      JOINT Bip001_Spine2
      {
        OFFSET 2.28934e-005 14.7848 -1.7233
        CHANNELS 3 Zrotation Xrotation Yrotation
        JOINT Bip001_Neck
        {
          OFFSET 2.24514e-005 15.6905 -0.498826
          CHANNELS 3 Zrotation Xrotation Yrotation
          JOINT Bip001_L_Clavicle
          {
            OFFSET 6.17691 -0.000591152 0.00852867
            CHANNELS 3 Zrotation Xrotation Yrotation
            JOINT Bip001_L_UpperArm
            {
              OFFSET 11.773 -0.0611878 0.00197697
              CHANNELS 3 Zrotation Xrotation Yrotation
              JOINT Bip001_L_Forearm
              {
                OFFSET 26.4515 0.0817568 -2.19579
                CHANNELS 3 Zrotation Xrotation Yrotation
                JOINT Bip001_L_Hand
                {
                  OFFSET 32.8677 0.156744 1.67112
                  CHANNELS 3 Zrotation Xrotation Yrotation
                  JOINT Bip001_L_Finger0
                  {
                    OFFSET 6.16268 -2.25226 6.01674
                    CHANNELS 3 Zrotation Xrotation Yrotation
                    End Site
                    {
                      OFFSET 4.30499 -1.46662 0.618148
                    }
                  }
                  JOINT Bip001_L_Finger1
                  {
                    OFFSET 11.2957 -0.718374 -0.201963
                    CHANNELS 3 Zrotation Xrotation Yrotation
                    End Site
                    {
                      OFFSET 6.31952 -0.405163 -0.0802303
                    }
                  }
                }
              }
            }
          }
          JOINT Bip001_R_Clavicle
          {
            OFFSET -6.17691 -0.000574027 0.00851165
            CHANNELS 3 Zrotation Xrotation Yrotation
            JOINT Bip001_R_UpperArm
            {
              OFFSET -11.773 -0.0611516 0.00194365
              CHANNELS 3 Zrotation Xrotation Yrotation
              JOINT Bip001_R_Forearm
              {
                OFFSET -26.4514 0.0822334 -2.19736
                CHANNELS 3 Zrotation Xrotation Yrotation
                JOINT Bip001_R_Hand
                {
                  OFFSET -32.8677 0.156817 1.67144
                  CHANNELS 3 Zrotation Xrotation Yrotation
                  JOINT Bip001_R_Finger0
                  {
                    OFFSET -6.1627 -2.25224 6.0167
                    CHANNELS 3 Zrotation Xrotation Yrotation
                    End Site
                    {
                      OFFSET -4.30499 -1.46662 0.618134
                    }
                  }
                  JOINT Bip001_R_Finger1
                  {
                    OFFSET -11.2958 -0.718344 -0.201994
                    CHANNELS 3 Zrotation Xrotation Yrotation
                    End Site
                    {
                      OFFSET -6.31952 -0.405146 -0.0802475
                    }
                  }
                }
              }
            }
          }
          JOINT Bip001_Head
          {
            OFFSET 1.11782e-005 11.4912 2.09908
            CHANNELS 3 Zrotation Xrotation Yrotation
            End Site
            {
              OFFSET 2.95144e-005 21.2823 -2.83069e-005
            }
          }
        }
      }
    }
  }
}
MOTION
Frames:	12
Frame Time:	0.04
6.98624 95.541 -8.45882 -0.278438 -0.892152 3.45684 -0.0241031 1.9891 -0.0941045 6.23504 -9.46272 8.43873 -1.0119 14.6839 -2.03351 -3.37711 -5.408 -0.69086 0.681951 -9.83764 0.301073 -7.29077 -6.49926 -0.343143 0.712785 14.4546 0.571084 1.0756 -8.22603 -10.9471 -1.27217 -11.4326 0.904789 -0.227989 3.94861 -0.195274 -0.227986 3.94861 -0.195321 1.7735 13.9343 -0.645657 -32.3482 -7.18815 -16.3304 -48.6571 42.2545 5.82296 13.1331 1.80724 -25.1797 -2.78494 -0.237836 -1.1463 0 0 -0 -0 0 7.95139e-016 36.4607 -5.62615 16.6093 50.1571 37.5432 -16.1278 -4.32356 -13.4809 22.6047 14.566 0.344116 -13.9335 3.18055e-015 0 -3.18055e-015 1.59028e-015 3.18056e-015 -3.18055e-015 -3.82065 10.8018 1.26959 
6.93975 95.5385 -8.49129 -0.304047 -0.92637 3.41269 -0.022561 1.9919 -0.138338 6.31964 -9.45871 8.47077 -1.0518 14.7137 -2.07603 -3.38106 -5.41982 -0.601257 0.683626 -9.83762 0.314943 -7.2249 -6.52794 -0.272574 0.712981 14.4782 0.577483 1.06119 -8.2263 -10.942 -1.29412 -11.4326 0.904789 -0.217962 3.98408 -0.285799 -0.217961 3.98407 -0.285799 1.69026 14.1574 -0.586288 -32.3507 -7.41905 -16.2834 -48.8816 42.7421 5.8415 12.8202 1.76206 -24.2634 -3.16255 -0.285264 -1.11628 3.18055e-015 -9.54166e-015 2.38542e-015 3.18055e-015 -1.27222e-014 1.59028e-015 36.4574 -5.98773 16.4027 49.367 36.128 -15.6029 -3.88655 -15.4174 24.4338 13.1812 0.322688 -14.5103 -0 -6.36111e-015 -0 8.82782e-032 -3.18056e-015 1.59028e-015 -3.84266 10.925 1.3068 
6.91966 95.531 -8.5135 -0.310719 -0.966477 3.28572 -0.0151168 2.01521 -0.161899 6.32004 -9.42738 9.8509 -0.644646 14.7568 -3.20803 -3.44755 -5.44891 -0.790919 0.682716 -9.82514 0.345075 -7.22969 -6.58762 -0.27661 0.723885 14.5406 0.645419 1.09071 -8.24917 -10.8624 -1.34402 -11.429 0.91017 -0.218277 4.03075 -0.332393 -0.218278 4.03076 -0.332394 1.58424 14.2441 -0.518289 -32.358 -7.43635 -16.4047 -48.9587 42.5915 5.87373 12.6416 1.95815 -23.7694 -3.50857 -0.341555 -1.09836 1.59028e-015 0 -0 1.59028e-015 3.18056e-015 -0 36.4506 -6.09634 16.4348 48.0277 34.9113 -14.3919 -5.3812 -13.1699 24.9267 12.6411 -0.231066 -14.5288 1.59028e-015 3.18055e-015 -0 3.18055e-015 0 -1.59028e-015 -3.77572 10.9968 1.31348 
6.91877 95.5315 -8.53047 -0.292183 -0.955263 3.15914 0.00676019 1.98756 -0.172094 6.2703 -9.38973 9.7624 -0.638989 14.7353 -2.90171 -3.49522 -5.43144 -0.875576 0.683767 -9.83722 0.339559 -7.30098 -6.62673 -0.352662 0.736509 14.5762 0.683368 1.15021 -8.25647 -10.7053 -1.39932 -11.426 0.936919 -0.180516 3.97541 -0.35762 -0.180515 3.9754 -0.35762 1.13297 14.1184 -0.36099 -32.163 -7.34162 -16.1575 -49.0448 42.5988 5.92173 12.4655 1.83013 -23.6228 -3.62336 -0.38119 -1.13999 8.82781e-032 6.36111e-015 -7.95139e-016 4.41391e-032 3.18056e-015 -7.95139e-016 36.3414 -6.08112 16.4102 46.9596 32.7671 -13.6773 -6.00913 -14.9477 28.5414 13.8722 0.495398 -18.1315 -0 -6.36111e-015 -0 -7.95139e-016 -9.54167e-015 -0 -3.44389 11.1899 1.18551 
6.86742 95.5548 -8.55454 -0.380256 -0.883655 3.10948 0.023697 1.93827 -0.147082 6.37196 -9.38877 9.52838 -0.732732 14.6512 -2.84888 -3.48757 -5.3896 -0.656519 0.68444 -9.83631 0.345956 -7.18746 -6.57142 -0.463547 0.674181 14.3487 0.633121 1.18739 -8.10713 -10.5525 -1.41679 -11.427 0.97702 -0.151087 3.87675 -0.305226 -0.151087 3.87676 -0.305228 1.00023 13.886 -0.400881 -32.0717 -7.17123 -15.9712 -48.939 42.1286 5.87318 12.3928 1.96985 -23.8136 -3.75629 -0.365778 -1.09268 -1.59028e-015 0 7.95139e-016 0 3.18056e-015 -0 35.8337 -5.96261 16.3444 46.1847 30.0179 -13.3077 -9.09524 -12.9625 33.5209 14.2273 0.990301 -19.6354 1.19271e-015 -3.18055e-015 7.95139e-016 3.97569e-016 0 1.59028e-015 -3.33842 11.1957 1.05671 
6.94877 95.5424 -8.57578 -0.220193 -0.880818 3.10973 -0.034321 1.88626 -0.0895216 6.16632 -9.33106 8.50378 -0.910195 14.5676 -1.91186 -3.4719 -5.32994 -0.593086 0.681464 -9.84206 0.328212 -7.42541 -6.62313 -1.09833 0.64701 14.5972 0.956899 1.28578 -8.24609 -10.2919 -1.4695 -11.4166 0.99412 -0.27348 3.77276 -0.188359 -0.27348 3.77277 -0.18836 1.0831 13.3956 -0.547227 -32.0073 -6.77678 -15.7717 -48.7302 41.4555 5.78956 12.5355 2.11191 -24.1609 -3.79644 -0.414879 -0.954025 -3.18055e-015 -3.18055e-015 7.95139e-016 -1.59028e-015 -3.18056e-015 -7.95139e-016 35.2052 -5.70479 15.8989 45.0264 25.9094 -12.6284 -13.6293 -9.89163 40.4316 14.6512 1.27756 -19.2975 1.19271e-015 -6.36111e-015 1.19271e-015 7.95139e-016 -6.36111e-015 1.19271e-015 -3.30345 11.2412 0.931008 
6.91175 95.5367 -8.60473 -0.275333 -0.799347 3.22584 -0.0717968 1.78551 -0.0700178 6.30883 -9.40442 8.64485 -0.927566 14.6757 -2.0453 -3.44747 -5.34465 -0.706851 0.67896 -9.84671 0.312855 -7.29277 -6.60106 -1.71082 0.440545 14.6208 1.21514 1.33749 -8.23611 -10.0527 -1.45728 -11.4289 1.00816 -0.348609 3.57127 -0.143455 -0.348609 3.57127 -0.143457 1.13796 12.5199 -0.591751 -31.7646 -5.99513 -15.5389 -48.7703 40.6187 5.98399 12.8261 2.06505 -24.5822 -3.69844 -0.342824 -1.21633 -0 0 1.59028e-015 -0 0 1.59028e-015 34.5172 -5.16621 15.2118 43.4496 20.5971 -11.5605 -18.4308 -6.5531 49.5952 12.8895 1.97263 -18.5509 -1.59028e-015 -1.90833e-014 -3.18055e-015 -5.29669e-031 -1.90833e-014 -1.59028e-015 -3.23531 11.3578 0.883175 
6.89498 95.5354 -8.62123 -0.339123 -0.782887 3.41356 -0.101694 1.67484 -0.0605317 6.41947 -9.41959 8.78016 -0.887663 14.7929 -2.30683 -3.45273 -5.34846 -0.791468 0.678408 -9.84855 0.308315 -7.15764 -6.43951 -0.606597 0.718577 14.5076 0.614809 1.21092 -8.21126 -10.7319 -1.4499 -11.4182 0.95199 -0.405566 3.34995 -0.133191 -0.405565 3.34995 -0.133194 0.977646 11.2968 -0.545051 -31.2087 -4.95196 -15.0436 -48.6142 40.0171 5.68863 12.7138 1.80266 -24.7084 -3.6661 -0.301048 -1.50294 -3.18055e-015 -6.36111e-015 1.59028e-015 -3.18055e-015 -6.36111e-015 -3.18055e-015 34.0253 -4.24187 14.5624 41.13 12.7931 -9.75874 -22.0741 -3.28696 60.6491 10.3804 2.66282 -16.4261 -3.18055e-015 0 -3.18055e-015 -3.18055e-015 -3.18056e-015 -3.18055e-015 -3.01724 11.1916 0.78476 
6.91948 95.5336 -8.57992 -0.278149 -0.75323 3.67172 -0.132261 1.54191 -0.0602264 6.33419 -9.31286 8.75731 -0.827421 14.7321 -2.45649 -3.44569 -5.30633 -0.885894 0.678148 -9.84812 0.304612 -7.22819 -6.256 -0.831272 0.731546 14.546 0.635904 1.20361 -8.29241 -10.7586 -1.44173 -11.4182 0.93783 -0.46493 3.08413 -0.12745 -0.464928 3.08412 -0.127451 0.510682 9.94142 -0.42132 -30.4488 -3.67474 -14.74 -48.6077 39.4937 5.53098 12.5486 1.01231 -24.8343 -3.53817 -0.321629 -1.29044 -4.77083e-015 -6.36111e-015 3.18055e-015 -1.59028e-015 -3.18056e-015 3.18055e-015 33.5386 -3.1739 14.0434 38.7308 2.14883 -7.04335 -24.1763 0.840268 73.1713 6.9603 3.08195 -14.0638 -3.18055e-015 -6.36111e-015 -0 -3.18055e-015 -1.59028e-015 3.18055e-015 -2.51098 10.5557 0.55086 
7.0513 95.5325 -8.40342 -0.110657 -1.27608 4.35287 -0.164897 1.50131 -0.147666 6.01241 -8.71432 8.40292 -0.647846 14.6116 -2.7288 -3.41697 -5.28966 -0.934104 0.676458 -9.85034 0.291262 -7.50833 -5.34637 -2.16976 0.646159 14.4753 1.17659 1.25266 -8.45534 -10.4484 -1.41868 -11.4181 0.935564 -0.52583 3.00333 -0.298739 -0.525832 3.00334 -0.29874 0.35591 8.72986 -0.433982 -30.2296 -2.5012 -14.5065 -48.1619 39.0187 5.13273 12.5332 1.21173 -24.6694 -3.57997 -0.391691 -1.34782 1.59028e-015 6.36111e-015 -1.59028e-015 8.82782e-032 3.18056e-015 -1.59028e-015 32.4878 -2.12879 13.9241 37.0105 -7.67663 -2.44688 -26.3625 4.50949 84.1024 3.04474 4.03548 -12.3736 -3.18055e-015 5.56597e-015 -6.36111e-015 -3.18055e-015 7.95139e-015 -3.18055e-015 -2.5062 9.6768 0.458584 
6.96585 95.5204 -8.63155 -0.315134 -0.791836 3.79945 -0.171215 1.24553 0.0342975 6.38509 -9.12654 8.99976 -0.763717 14.9101 -2.83831 -3.36975 -5.35389 -0.99133 0.676932 -9.85671 0.288981 -7.13898 -5.93031 -0.559241 0.741161 14.5602 0.47215 1.16904 -8.271 -10.9966 -1.37945 -11.4137 0.882244 -0.537817 2.49098 0.0618864 -0.537816 2.49098 0.0618843 -0.0618086 7.53934 -0.385168 -29.7458 -1.31795 -14.3465 -47.7244 38.5951 4.79722 12.588 1.6569 -24.5765 -3.47181 -0.374583 -1.35642 -1.59028e-015 -3.18055e-015 1.59028e-015 -0 -3.18056e-015 -0 31.2116 -1.13254 13.9751 36.1635 -11.5305 4.23617 -28.1579 3.28552 90.39 -0.759703 5.13085 -10.9778 -7.95139e-016 -9.69075e-016 -1.19271e-015 -7.95139e-016 -2.23633e-016 -1.19271e-015 -1.88905 8.94783 0.158279 
7.01635 95.5165 -8.62131 -0.3427 -0.742515 4.14553 -0.23747 1.08247 0.102862 6.42053 -9.13967 9.12243 -0.681758 15.0265 -3.1977 -3.32631 -5.35461 -1.14717 0.671506 -9.86044 0.250624 -7.06949 -5.67974 -0.660216 0.745206 14.4765 0.422554 1.13341 -8.26628 -11.2116 -1.32518 -11.4181 0.845844 -0.663469 2.16443 0.20026 -0.663469 2.16443 0.200261 0.249207 6.33883 -0.733748 -29.5785 -0.294667 -14.0709 -47.591 38.1575 4.54506 12.6033 1.68556 -24.5797 -3.41014 -0.395538 -1.29842 4.77083e-015 9.54166e-015 -4.77083e-015 6.36111e-015 9.54167e-015 -4.77083e-015 29.2206 -0.0393079 14.1586 35.894 -15.0658 12.7599 -30.0039 2.10495 94.1059 -4.04034 5.64338 -9.48041 -3.42078e-031 1.23246e-014 1.59028e-015 0 7.7526e-015 -0 -1.96813 8.19335 -0.0642804 
